<svg preserveAspectRatio="none" width="100%" height="100%" overflow="visible" style="display: block;" viewBox="0 0 1920 1799" fill="none" xmlns="http://www.w3.org/2000/svg">
<g id="Mask group">
<mask id="mask0_0_4" style="mask-type:alpha" maskUnits="userSpaceOnUse" x="0" y="0" width="1920" height="1800">
<g id="::before">
<rect width="1920" height="1799" transform="translate(1920 1799) rotate(180)" fill="url(#paint0_linear_0_4)"/>
</g>
</mask>
<g mask="url(#mask0_0_4)">
<path id="Vector" d="M1782.66 1372.11L1778.61 1373.45C1751.73 1382.4 1742.56 1385.48 1733.18 1387.64C1727.86 1388.86 1722.46 1389.81 1713.75 1391.38C1662.71 1400.58 1610.08 1395.57 1557.47 1376.5C1518.26 1362.3 1481.25 1339.35 1407 1283.25C1368.97 1254.5 1327.07 1222.89 1313.87 1212.97C1150.17 1089.98 823.315 839.96 731.882 767.799C716.421 755.601 684.505 730.413 660.945 711.834C612.596 673.732 583.055 643.995 560.228 610.466C480.252 493.014 471.902 341.437 538.852 221.02C598.115 114.406 702.937 42.1442 822.778 25.3641C891.286 15.7756 959.705 26.155 1026.44 56.2096C1056.09 69.5753 1083.33 86.7585 1126.78 119.393C1145.91 133.775 1178.8 158.497 1199.94 174.347C1248.66 210.941 1649.42 517.295 1713.01 566.529C1764.86 606.698 1813.83 644.569 1871.85 689.352C1930.33 734.499 1953.65 756.117 1980.02 789.552C2055.44 885.101 2073.43 1006.51 2031.54 1136.94C2019.85 1173.24 1987.7 1231.64 1965.27 1257.14C1932.16 1294.81 1890.25 1326.55 1844.62 1348.47C1833.58 1353.79 1805.69 1364.43 1782.66 1372.11Z" fill="#0DFBC1"/>
</g>
</g>
<defs>
<linearGradient id="paint0_linear_0_4" x1="0" y1="0" x2="1409.9" y2="1820.07" gradientUnits="userSpaceOnUse">
<stop stop-color="#0DFBC1" stop-opacity="0.57"/>
<stop offset="1" stop-color="#060410" stop-opacity="0"/>
</linearGradient>
</defs>
</svg>
